<svg xmlns="http://www.w3.org/2000/svg" xmlns:xlink="http://www.w3.org/1999/xlink" width="96" zoomAndPan="magnify" viewBox="0 0 72 72" height="96" preserveAspectRatio="xMidYMid meet" version="1.0"><defs><clipPath id="id1"><path d="M 1 10.078125 L 72 10.078125 L 72 62.578125 L 1 62.578125 Z M 1 10.078125 " clip-rule="nonzero"/></clipPath></defs><g clip-path="url(#id1)"><path fill="#1c00ff" d="M 60.429688 14.433594 C 55.980469 12.417969 51.207031 10.933594 46.214844 10.082031 C 46.125 10.066406 46.035156 10.109375 45.988281 10.191406 C 45.375 11.265625 44.691406 12.671875 44.21875 13.777344 C 38.847656 12.984375 33.507812 12.984375 28.25 13.777344 C 27.777344 12.648438 27.070312 11.265625 26.453125 10.191406 C 26.40625 10.109375 26.316406 10.070312 26.226562 10.082031 C 21.238281 10.929688 16.464844 12.414062 12.011719 14.433594 C 11.972656 14.449219 11.9375 14.476562 11.917969 14.511719 C 2.863281 27.851562 0.382812 40.863281 1.601562 53.714844 C 1.605469 53.777344 1.640625 53.839844 1.691406 53.875 C 7.664062 58.203125 13.449219 60.828125 19.128906 62.570312 C 19.21875 62.597656 19.316406 62.566406 19.375 62.492188 C 20.71875 60.683594 21.914062 58.773438 22.941406 56.769531 C 23.003906 56.652344 22.945312 56.511719 22.820312 56.464844 C 20.921875 55.753906 19.113281 54.886719 17.375 53.902344 C 17.234375 53.824219 17.222656 53.628906 17.351562 53.539062 C 17.71875 53.265625 18.082031 52.984375 18.433594 52.703125 C 18.496094 52.648438 18.585938 52.636719 18.660156 52.671875 C 30.085938 57.816406 42.460938 57.816406 53.753906 52.671875 C 53.828125 52.636719 53.917969 52.644531 53.984375 52.699219 C 54.332031 52.984375 54.699219 53.265625 55.066406 53.539062 C 55.195312 53.628906 55.1875 53.824219 55.050781 53.902344 C 53.308594 54.90625 51.5 55.753906 49.597656 56.460938 C 49.476562 56.507812 49.417969 56.652344 49.480469 56.769531 C 50.527344 58.769531 51.726562 60.679688 53.046875 62.488281 C 53.101562 62.566406 53.199219 62.597656 53.289062 62.570312 C 58.996094 60.828125 64.78125 58.203125 70.753906 53.875 C 70.808594 53.839844 70.839844 53.78125 70.847656 53.71875 C 72.304688 38.859375 68.40625 25.953125 60.519531 14.515625 C 60.503906 14.476562 60.46875 14.449219 60.429688 14.433594 Z M 24.648438 45.890625 C 21.207031 45.890625 18.371094 42.773438 18.371094 38.949219 C 18.371094 35.121094 21.152344 32.007812 24.648438 32.007812 C 28.171875 32.007812 30.980469 35.148438 30.925781 38.949219 C 30.925781 42.773438 28.144531 45.890625 24.648438 45.890625 Z M 47.851562 45.890625 C 44.414062 45.890625 41.578125 42.773438 41.578125 38.949219 C 41.578125 35.121094 44.359375 32.007812 47.851562 32.007812 C 51.375 32.007812 54.183594 35.148438 54.128906 38.949219 C 54.128906 42.773438 51.375 45.890625 47.851562 45.890625 Z M 47.851562 45.890625 " fill-opacity="1" fill-rule="nonzero"/></g></svg>