<svg xmlns="http://www.w3.org/2000/svg" xmlns:xlink="http://www.w3.org/1999/xlink" width="96" zoomAndPan="magnify" viewBox="0 0 72 72" height="96" preserveAspectRatio="xMidYMid meet" version="1.0"><defs><clipPath id="id1"><path d="M 1.484375 0 L 70.484375 0 L 70.484375 72 L 1.484375 72 Z M 1.484375 0 " clip-rule="nonzero"/></clipPath><clipPath id="id2"><path d="M 1.484375 0 L 70.484375 0 L 70.484375 72 L 1.484375 72 Z M 1.484375 0 " clip-rule="nonzero"/></clipPath></defs><g clip-path="url(#id1)"><path fill="#000000" d="M 68.984375 0 L 7.503906 0 C 6.878906 0 6.320312 0.386719 6.101562 0.972656 L 1.601562 12.972656 C 1.539062 13.140625 1.503906 13.320312 1.503906 13.5 L 1.503906 61.5 C 1.503906 62.328125 2.175781 63 3.003906 63 L 19.5 63 L 19.5 70.5 C 19.5 71.328125 20.171875 72 21 72 L 26.996094 72 C 27.394531 72 27.777344 71.84375 28.058594 71.5625 L 36.613281 63 L 50.988281 63 C 51.386719 63 51.769531 62.84375 52.050781 62.5625 L 70.042969 44.5625 C 70.324219 44.28125 70.484375 43.898438 70.480469 43.5 L 70.480469 1.5 C 70.480469 0.671875 69.8125 0 68.984375 0 Z M 64.484375 40.5 C 64.484375 40.898438 64.328125 41.28125 64.046875 41.5625 L 52.050781 53.5625 C 51.769531 53.84375 51.386719 54 50.988281 54 L 36.613281 54 L 28.058594 62.5625 C 27.472656 63.148438 26.523438 63.148438 25.9375 62.5625 C 25.65625 62.28125 25.496094 61.898438 25.496094 61.5 L 25.496094 54 L 10.503906 54 C 9.675781 54 9.003906 53.328125 9.003906 52.5 L 9.003906 7.5 C 9.003906 6.671875 9.675781 6 10.503906 6 L 62.984375 6 C 63.8125 6 64.484375 6.671875 64.484375 7.5 Z M 64.484375 40.5 " fill-opacity="1" fill-rule="nonzero"/></g><path fill="#000000" d="M 29.996094 39 C 29.167969 39 28.496094 38.328125 28.496094 37.5 L 28.496094 19.5 C 28.496094 18.671875 29.167969 18 29.996094 18 C 30.824219 18 31.496094 18.671875 31.496094 19.5 L 31.496094 37.5 C 31.496094 38.328125 30.824219 39 29.996094 39 Z M 29.996094 39 " fill-opacity="1" fill-rule="nonzero"/><path fill="#000000" d="M 47.988281 39 C 47.160156 39 46.488281 38.328125 46.488281 37.5 L 46.488281 19.5 C 46.488281 18.671875 47.160156 18 47.988281 18 C 48.816406 18 49.488281 18.671875 49.488281 19.5 L 49.488281 37.5 C 49.488281 38.328125 48.816406 39 47.988281 39 Z M 47.988281 39 " fill-opacity="1" fill-rule="nonzero"/><g clip-path="url(#id2)"><path fill="#00e8ff" d="M 26.996094 72 L 21 72 C 20.171875 72 19.5 71.328125 19.5 70.5 L 19.5 63 L 3.003906 63 C 2.175781 63 1.503906 62.328125 1.503906 61.5 L 1.503906 13.5 C 1.503906 13.320312 1.539062 13.140625 1.601562 12.972656 L 6.101562 0.972656 C 6.320312 0.386719 6.878906 0 7.503906 0 L 68.980469 0 C 69.8125 0 70.480469 0.671875 70.480469 1.5 L 70.480469 43.5 C 70.484375 43.898438 70.324219 44.28125 70.042969 44.5625 L 52.050781 62.5625 C 51.769531 62.84375 51.386719 63 50.988281 63 L 36.613281 63 L 28.058594 71.5625 C 27.777344 71.84375 27.394531 72 26.996094 72 Z M 22.5 69 L 26.375 69 L 34.933594 60.4375 C 35.214844 60.15625 35.597656 60 35.992188 60 L 50.367188 60 L 67.484375 42.878906 L 67.484375 3 L 8.542969 3 L 4.503906 13.773438 L 4.503906 60 L 21 60 C 21.828125 60 22.5 60.671875 22.5 61.5 Z M 22.5 69 " fill-opacity="1" fill-rule="nonzero"/></g><path fill="#00e8ff" d="M 26.996094 63 C 26.800781 63 26.605469 62.960938 26.425781 62.886719 C 25.863281 62.65625 25.496094 62.105469 25.496094 61.5 L 25.496094 54 L 10.503906 54 C 9.675781 54 9.003906 53.328125 9.003906 52.5 L 9.003906 7.5 C 9.003906 6.671875 9.675781 6 10.503906 6 L 62.984375 6 C 63.8125 6 64.484375 6.671875 64.484375 7.5 L 64.484375 40.5 C 64.484375 40.898438 64.328125 41.28125 64.046875 41.5625 L 52.050781 53.5625 C 51.769531 53.84375 51.386719 54 50.988281 54 L 36.613281 54 L 28.058594 62.5625 C 27.777344 62.84375 27.394531 63 26.996094 63 Z M 12 51 L 26.996094 51 C 27.824219 51 28.496094 51.671875 28.496094 52.5 L 28.496094 57.878906 L 34.933594 51.441406 C 35.214844 51.160156 35.59375 51 35.992188 51 L 50.367188 51 L 61.484375 39.878906 L 61.484375 9 L 12 9 Z M 12 51 " fill-opacity="1" fill-rule="nonzero"/><path fill="#00e8ff" d="M 29.996094 39 C 29.167969 39 28.496094 38.328125 28.496094 37.5 L 28.496094 19.5 C 28.496094 18.671875 29.167969 18 29.996094 18 C 30.824219 18 31.496094 18.671875 31.496094 19.5 L 31.496094 37.5 C 31.496094 38.328125 30.824219 39 29.996094 39 Z M 29.996094 39 " fill-opacity="1" fill-rule="nonzero"/><path fill="#00e8ff" d="M 47.988281 39 C 47.160156 39 46.488281 38.328125 46.488281 37.5 L 46.488281 19.5 C 46.488281 18.671875 47.160156 18 47.988281 18 C 48.816406 18 49.488281 18.671875 49.488281 19.5 L 49.488281 37.5 C 49.488281 38.328125 48.816406 39 47.988281 39 Z M 47.988281 39 " fill-opacity="1" fill-rule="nonzero"/></svg>